PathFileType	4	(X/Y/Z)	OpenSim_Sub04_CSBaseline_Magnet.trc
DataRate	CameraRate	NumFrames	NumMarkers	Units	OrigDataRate	OrigDataStartFrame	OrigNumFrames
100	100	16	8	m	100	5052	8083
Frame#	Time	torso_imu_offset_imu	pelvis_imu_offset_imu	tibia_r_imu_offset_imu	femur_r_imu_offset_imu	tibia_l_imu_offset_imu	femur_l_imu_offset_imu	toes_r_imu_offset_imu	toes_l_imu_offset_imu
				X1	Y1	Z1	X2	Y2	Z2	X3	Y3	Z3	X4	Y4	Z4	X5	Y5	Z5	X6	Y6	Z6	X7	Y7	Z7	X8		Y8	Z8	

5052	50.51000000	0.93842273	0.10189904	-0.14769055	-0.62119197	0.08442720	-0.68584491	-0.46540605	-0.67123298	-0.06811591	-0.66560936	-0.47270016	0.17777880	-0.73382644	0.31889163	0.08745655	-0.57436662	-0.10774603	0.24388236	-0.72454706	-0.18327426	-0.25568571	-0.61081493	-0.27503289	-0.44776505
5053	50.52000000	0.94021016	0.10108583	-0.14789220	-0.62154612	0.08479806	-0.68752282	-0.45145309	-0.66862581	-0.06471669	-0.66096038	-0.47294556	0.17660675	-0.74106951	0.30550679	0.08458702	-0.56846378	-0.10740632	0.25434347	-0.72640849	-0.18219467	-0.25072902	-0.59732212	-0.28378190	-0.46519063
5054	50.53000000	0.93774300	0.10209140	-0.15212935	-0.62209603	0.08823816	-0.68768566	-0.45416211	-0.67385623	-0.06743650	-0.66047140	-0.47402734	0.17308118	-0.75064504	0.28764503	0.08811017	-0.56471793	-0.10717827	0.25623013	-0.72679016	-0.18467851	-0.24569620	-0.58589357	-0.28214636	-0.47406666
5055	50.54000000	0.93756154	0.10452037	-0.14937908	-0.61631158	0.09096909	-0.68519391	-0.44386604	-0.68575779	-0.06840306	-0.65733946	-0.48303774	0.18008370	-0.75185035	0.28119376	0.08313534	-0.56723399	-0.10953746	0.25839503	-0.72507789	-0.19137055	-0.24318741	-0.57345141	-0.29163389	-0.48183958
5056	50.55000000	0.93590355	0.10489761	-0.14596631	-0.61600402	0.09296082	-0.68822332	-0.43816469	-0.68617942	-0.06585076	-0.65144391	-0.49156805	0.17731978	-0.75096606	0.27381596	0.08098698	-0.56332698	-0.10639246	0.25387690	-0.72070914	-0.19223886	-0.24172619	-0.57207003	-0.29005906	-0.49036591
5057	50.56000000	0.93338600	0.10328961	-0.14968406	-0.62394433	0.09441408	-0.67731151	-0.42663580	-0.69542547	-0.06698544	-0.65732532	-0.48581378	0.17814989	-0.75302908	0.26555290	0.08836270	-0.56669206	-0.10258713	0.25945670	-0.72146467	-0.19345912	-0.23375700	-0.56823653	-0.28844103	-0.48706570
5058	50.57000000	0.93499785	0.10196985	-0.15058576	-0.61673347	0.10070445	-0.68196687	-0.42060752	-0.69882603	-0.06978400	-0.65297679	-0.49188912	0.17546458	-0.75163573	0.26834725	0.08691216	-0.56549659	-0.10857668	0.25742316	-0.72527025	-0.19727354	-0.23081544	-0.56935808	-0.29024537	-0.48789855
5059	50.58000000	0.93500337	0.10979473	-0.15053555	-0.61875176	0.10223629	-0.68015586	-0.41368002	-0.70554757	-0.06768852	-0.65119972	-0.49444735	0.17057080	-0.74994091	0.27305971	0.09148659	-0.56509358	-0.10960498	0.25365704	-0.73040041	-0.20206174	-0.22389123	-0.57056653	-0.29517782	-0.48765670
5060	50.59000000	0.93686769	0.11121032	-0.15283935	-0.62007845	0.09908718	-0.67627217	-0.40090546	-0.71524100	-0.06672864	-0.65194111	-0.49104221	0.16588142	-0.74312505	0.27869533	0.09974984	-0.56254483	-0.11278997	0.25424191	-0.72671031	-0.20265428	-0.21507599	-0.58269236	-0.29187358	-0.47741900
5061	50.60000000	0.93619526	0.11292645	-0.15281545	-0.62026222	0.10664895	-0.67669698	-0.39119243	-0.71566087	-0.06720418	-0.64945206	-0.49810762	0.16195470	-0.74477427	0.28857186	0.11019052	-0.56613679	-0.11703155	0.25129022	-0.72970684	-0.20318463	-0.20850393	-0.59142040	-0.29417405	-0.46665853
5062	50.61000000	0.92905629	0.11402611	-0.15546214	-0.61803402	0.10764772	-0.67437736	-0.38714499	-0.72268324	-0.06445136	-0.64943013	-0.50193592	0.15636734	-0.74070769	0.30367966	0.11907026	-0.56668303	-0.12392235	0.25921785	-0.72806265	-0.21365553	-0.20219201	-0.59465468	-0.30140008	-0.44912655
5063	50.62000000	0.93175672	0.12452802	-0.15123044	-0.62011321	0.11452880	-0.67463518	-0.37573526	-0.72777657	-0.06594617	-0.64686701	-0.50000845	0.16038918	-0.73018344	0.31588320	0.12500631	-0.56853880	-0.12454713	0.26091574	-0.73316887	-0.21276692	-0.19491200	-0.60573281	-0.30473225	-0.43676529
5064	50.63000000	0.93147510	0.12427674	-0.16008169	-0.61853730	0.12053118	-0.67250883	-0.36323812	-0.73329151	-0.06747768	-0.65285649	-0.50087850	0.15604217	-0.71952921	0.32308147	0.13472873	-0.56725606	-0.12862212	0.26262379	-0.73558747	-0.22111870	-0.18061792	-0.60890013	-0.30504708	-0.42476466
5065	50.64000000	0.92632311	0.12582386	-0.16500105	-0.62161928	0.11871164	-0.67437435	-0.34435555	-0.73958886	-0.07432671	-0.64799347	-0.50554406	0.14787153	-0.72197836	0.32915938	0.14659239	-0.56401663	-0.12725214	0.26247941	-0.74127251	-0.22529594	-0.17014145	-0.61829740	-0.30365198	-0.42119159
5066	50.65000000	0.92801447	0.12343666	-0.16226364	-0.62453171	0.12090605	-0.67138170	-0.33277658	-0.74753934	-0.07229835	-0.64989889	-0.50401211	0.14747695	-0.71033228	0.33836146	0.15125402	-0.56886817	-0.13004609	0.26970040	-0.74408375	-0.22704867	-0.15207918	-0.62735509	-0.30042155	-0.40021789
5067	50.66000000	0.92499652	0.13220630	-0.16629408	-0.62731102	0.13133740	-0.66631608	-0.31630222	-0.75491576	-0.07797297	-0.65312806	-0.50613815	0.14207733	-0.70990030	0.34109045	0.15874609	-0.55932672	-0.13530481	0.27978796	-0.74744861	-0.23010691	-0.13937420	-0.62653442	-0.30648392	-0.39277492
